<?xml version="1.0" encoding="UTF-8"?> <!-- Generator: Adobe Illustrator 24.2.3, SVG Export Plug-In . SVG Version: 6.00 Build 0) --> <svg xmlns="http://www.w3.org/2000/svg" xmlns:xlink="http://www.w3.org/1999/xlink" version="1.1" id="Layer_1" x="0px" y="0px" viewBox="0 0 250 177" style="enable-background:new 0 0 250 177;" xml:space="preserve"> <style type="text/css"> .st0{fill:#C02525;} .st1{fill:#FFFFFF;} </style> <path class="st0" d="M125,163.22c-5.56,0-11.05-0.9-16.31-2.68l-75.32-25.46c-9.46-3.2-15.82-12.06-15.82-22.04V62.9 c0-11.72,9.53-21.25,21.25-21.25h34.58c2.78-7.73,9.24-14.7,18.29-19.73c9.46-5.25,21.38-8.14,33.59-8.14 c12.2,0,24.13,2.89,33.59,8.14c9.05,5.03,15.5,12,18.29,19.73h34.08c11.72,0,21.25,9.53,21.25,21.25v50.13 c0,9.99-6.36,18.85-15.82,22.04l-75.32,25.46C136.05,162.32,130.56,163.22,125,163.22z"></path> <path d="M211.2,43.09H176.1c-5.04-15.93-25.89-27.87-50.85-27.87S79.45,27.16,74.4,43.09H38.8c-10.94,0-19.81,8.87-19.81,19.81 v50.13c0,9.37,5.97,17.69,14.84,20.69l75.32,25.46c10.28,3.48,21.42,3.48,31.7,0l75.32-25.46c8.87-3,14.84-11.32,14.84-20.69V62.9 C231.02,51.96,222.15,43.09,211.2,43.09z"></path> <path class="st1" d="M125,158.92c-5.09,0-10.11-0.83-14.93-2.46L34.74,131c-7.71-2.61-12.9-9.83-12.9-17.97V62.9 c0-9.34,7.6-16.95,16.95-16.95H76.5l0.63-2c4.75-14.99,24.98-25.87,48.11-25.87c23.13,0,43.37,10.88,48.11,25.87l0.63,2h37.21 c9.35,0,16.95,7.6,16.95,16.95v50.13c0,8.14-5.18,15.36-12.9,17.97l-75.32,25.46C135.11,158.09,130.09,158.92,125,158.92z"></path> <g> <g> <path d="M79.65,51.75c-0.1,0-0.2-0.01-0.29-0.03c-0.1-0.02-0.19-0.05-0.28-0.08c-0.09-0.04-0.18-0.08-0.26-0.14 c-0.08-0.06-0.16-0.12-0.23-0.19c-0.28-0.28-0.44-0.66-0.44-1.05c0-0.1,0.01-0.2,0.03-0.29c0.02-0.1,0.05-0.19,0.08-0.28 c0.04-0.09,0.08-0.18,0.14-0.26c0.06-0.08,0.12-0.16,0.19-0.23c0.07-0.07,0.14-0.13,0.23-0.18c0.08-0.05,0.17-0.1,0.26-0.14 c0.09-0.04,0.18-0.07,0.28-0.08c0.48-0.1,1,0.06,1.35,0.41c0.07,0.07,0.13,0.15,0.19,0.23c0.05,0.08,0.1,0.17,0.14,0.26 c0.04,0.09,0.07,0.18,0.08,0.28c0.02,0.1,0.03,0.2,0.03,0.29c0,0.39-0.16,0.78-0.44,1.05C80.43,51.59,80.05,51.75,79.65,51.75z"></path> </g> <g> <path d="M82.27,42.53c-0.72-0.41-0.97-1.32-0.56-2.04l0,0c0.41-0.72,1.32-0.97,2.03-0.56l0,0c0.72,0.41,0.97,1.32,0.56,2.03l0,0 c-0.28,0.48-0.78,0.76-1.3,0.76l0,0C82.75,42.73,82.5,42.67,82.27,42.53z M166.19,41.96c-0.41-0.72-0.16-1.63,0.56-2.04l0,0 c0.72-0.41,1.63-0.16,2.03,0.56l0,0l0,0l0,0c0.41,0.72,0.16,1.63-0.56,2.04l0,0c-0.23,0.13-0.49,0.2-0.74,0.2l0,0 C166.97,42.71,166.47,42.44,166.19,41.96z M88.06,34.88c-0.53-0.63-0.46-1.57,0.17-2.11l0,0c0.63-0.53,1.57-0.46,2.11,0.17l0,0 c0.53,0.63,0.46,1.57-0.17,2.11l0,0c-0.28,0.24-0.63,0.36-0.97,0.36l0,0C88.78,35.41,88.36,35.23,88.06,34.88z M160.31,35.04 L160.31,35.04c-0.63-0.53-0.7-1.47-0.17-2.11l0,0c0.53-0.63,1.47-0.7,2.11-0.17l0,0c0.63,0.53,0.7,1.48,0.17,2.11l0,0 c-0.3,0.35-0.72,0.53-1.14,0.53l0,0C160.94,35.39,160.6,35.28,160.31,35.04z M95.91,29.31c-0.37-0.74-0.08-1.63,0.66-2.01l0,0 c0.74-0.38,1.63-0.08,2.01,0.66l0,0c0.37,0.73,0.08,1.63-0.66,2.01l0,0c-0.21,0.11-0.45,0.16-0.67,0.16l0,0 C96.7,30.13,96.18,29.83,95.91,29.31z M152.56,29.96c-0.73-0.37-1.03-1.27-0.66-2.01l0,0c0.37-0.74,1.27-1.03,2.01-0.66l0,0 c0.74,0.37,1.03,1.27,0.66,2.01l0,0c-0.26,0.52-0.79,0.82-1.33,0.82l0,0C153.01,30.12,152.78,30.06,152.56,29.96z M104.77,25.52 c-0.24-0.79,0.21-1.62,1-1.86l0,0c0.79-0.24,1.62,0.21,1.86,1l0,0c0.24,0.79-0.21,1.62-1,1.86l0,0c-0.14,0.04-0.29,0.06-0.43,0.06 l0,0C105.56,26.58,104.97,26.16,104.77,25.52z M143.85,26.51c-0.79-0.24-1.24-1.07-1-1.86l0,0c0.24-0.79,1.07-1.24,1.86-1l0,0 c0.79,0.24,1.24,1.07,1,1.86l0,0c-0.19,0.65-0.79,1.07-1.43,1.07l0,0C144.13,26.58,143.99,26.56,143.85,26.51z M114.15,23.25 c-0.11-0.81,0.45-1.57,1.27-1.69l0,0l0,0l0,0c0.81-0.11,1.57,0.46,1.68,1.27l0,0c0.11,0.82-0.46,1.57-1.27,1.68l0,0 c-0.07,0.01-0.14,0.01-0.21,0.01l0,0C114.89,24.54,114.25,24,114.15,23.25z M134.65,24.53c-0.82-0.11-1.39-0.87-1.27-1.69l0,0 c0.11-0.81,0.87-1.39,1.69-1.27l0,0c0.82,0.11,1.39,0.87,1.27,1.69l0,0c-0.1,0.74-0.74,1.29-1.47,1.29l0,0 C134.79,24.54,134.72,24.53,134.65,24.53z M123.75,22.38c0-0.83,0.67-1.49,1.49-1.49l0,0c0.82,0,1.49,0.67,1.49,1.49l0,0 c0,0.82-0.67,1.49-1.49,1.49l0,0C124.41,23.88,123.75,23.21,123.75,22.38z"></path> </g> <g> <path d="M170.85,51.75c-0.39,0-0.78-0.16-1.05-0.44c-0.07-0.07-0.13-0.14-0.19-0.22c-0.05-0.08-0.1-0.17-0.14-0.26 c-0.04-0.09-0.07-0.18-0.08-0.28c-0.02-0.1-0.03-0.2-0.03-0.29c0-0.1,0.01-0.2,0.03-0.29c0.02-0.1,0.05-0.19,0.08-0.28 c0.04-0.09,0.08-0.18,0.14-0.26c0.06-0.08,0.12-0.16,0.19-0.22c0.07-0.07,0.14-0.13,0.22-0.19s0.17-0.1,0.26-0.14 c0.09-0.04,0.18-0.07,0.28-0.08c0.49-0.1,1,0.06,1.35,0.41c0.07,0.07,0.13,0.14,0.18,0.22c0.05,0.08,0.1,0.17,0.14,0.26 c0.04,0.09,0.07,0.18,0.08,0.28c0.02,0.1,0.03,0.19,0.03,0.29c0,0.1-0.01,0.2-0.03,0.29c-0.02,0.1-0.05,0.19-0.08,0.28 c-0.04,0.09-0.08,0.18-0.14,0.26c-0.06,0.08-0.12,0.16-0.18,0.22c-0.07,0.07-0.15,0.13-0.23,0.19c-0.08,0.05-0.17,0.1-0.26,0.14 c-0.09,0.04-0.18,0.07-0.28,0.08C171.04,51.74,170.94,51.75,170.85,51.75z"></path> </g> <g> <path d="M128.21,154.52c-0.09-0.82,0.5-1.56,1.32-1.65l0,0c0.82-0.09,1.56,0.5,1.65,1.32l0,0c0.09,0.82-0.5,1.56-1.32,1.65l0,0 c-0.06,0.01-0.11,0.01-0.17,0.01l0,0C128.95,155.85,128.3,155.29,128.21,154.52z M119.67,155.79c-0.82-0.1-1.4-0.85-1.3-1.67l0,0 c0.1-0.82,0.84-1.4,1.66-1.3l0,0c0.82,0.1,1.4,0.84,1.3,1.66l0,0c-0.09,0.76-0.74,1.31-1.48,1.31l0,0 C119.79,155.8,119.73,155.79,119.67,155.79z M137.88,152.62c-0.26-0.78,0.15-1.63,0.94-1.89l0,0c0.78-0.26,1.63,0.15,1.9,0.94l0,0 c0.26,0.78-0.16,1.63-0.94,1.9l0,0c-0.16,0.05-0.32,0.08-0.48,0.08l0,0C138.67,153.63,138.09,153.24,137.88,152.62z M109.79,153.4 c-0.78-0.26-1.2-1.11-0.94-1.89l0,0c0.27-0.78,1.11-1.2,1.89-0.94l0,0c0.78,0.27,1.2,1.11,0.94,1.89l0,0 c-0.21,0.62-0.79,1.02-1.42,1.02l0,0C110.11,153.49,109.95,153.46,109.79,153.4z M147.24,149.45c-0.26-0.78,0.15-1.63,0.94-1.89 l0,0c0.78-0.27,1.63,0.15,1.9,0.94l0,0c0.26,0.78-0.16,1.63-0.94,1.89l0,0c-0.16,0.06-0.32,0.08-0.48,0.08l0,0 C148.03,150.47,147.45,150.08,147.24,149.45z M100.44,150.25c-0.78-0.27-1.2-1.11-0.94-1.9l0,0c0.27-0.78,1.11-1.2,1.9-0.94l0,0 c0.78,0.27,1.2,1.11,0.94,1.9l0,0c-0.21,0.62-0.79,1.01-1.42,1.01l0,0C100.76,150.32,100.6,150.3,100.44,150.25z M156.59,146.29 c-0.26-0.78,0.15-1.63,0.94-1.9l0,0c0.78-0.26,1.63,0.15,1.89,0.94l0,0c0.27,0.78-0.15,1.63-0.94,1.9l0,0 c-0.15,0.05-0.32,0.08-0.48,0.08l0,0C157.38,147.31,156.8,146.92,156.59,146.29z M91.08,147.08c-0.78-0.27-1.2-1.11-0.94-1.89l0,0 c0.27-0.78,1.11-1.2,1.9-0.94l0,0c0.78,0.26,1.2,1.11,0.94,1.89l0,0c-0.21,0.62-0.79,1.02-1.42,1.02l0,0 C91.4,147.16,91.24,147.14,91.08,147.08z M165.94,143.13c-0.27-0.78,0.15-1.63,0.94-1.89l0,0c0.78-0.27,1.63,0.15,1.89,0.94l0,0 c0.27,0.78-0.15,1.63-0.93,1.89l0,0c-0.16,0.06-0.32,0.08-0.48,0.08l0,0C166.74,144.14,166.15,143.75,165.94,143.13z M81.73,143.92c-0.78-0.27-1.2-1.11-0.94-1.89l0,0c0.27-0.78,1.11-1.2,1.9-0.94l0,0c0.78,0.27,1.2,1.11,0.94,1.9l0,0 c-0.21,0.62-0.79,1.01-1.42,1.01l0,0C82.05,144,81.89,143.97,81.73,143.92z M175.3,139.97c-0.26-0.78,0.15-1.63,0.94-1.9l0,0 c0.78-0.26,1.63,0.15,1.89,0.94l0,0c0.26,0.78-0.16,1.63-0.94,1.9l0,0c-0.16,0.05-0.32,0.08-0.48,0.08l0,0 C176.09,140.98,175.51,140.59,175.3,139.97z M72.38,140.76c-0.78-0.27-1.2-1.11-0.94-1.89l0,0c0.27-0.78,1.11-1.2,1.89-0.94l0,0 c0.78,0.26,1.2,1.11,0.94,1.89l0,0c-0.21,0.62-0.79,1.01-1.42,1.01l0,0C72.7,140.84,72.54,140.81,72.38,140.76z M184.65,136.81 c-0.27-0.78,0.15-1.63,0.94-1.89l0,0c0.78-0.27,1.63,0.15,1.89,0.94l0,0c0.27,0.78-0.15,1.63-0.94,1.89l0,0 c-0.16,0.05-0.32,0.08-0.48,0.08l0,0C185.44,137.82,184.86,137.43,184.65,136.81z M63.02,137.6c-0.78-0.26-1.2-1.11-0.94-1.89l0,0 c0.27-0.78,1.11-1.2,1.9-0.94l0,0c0.78,0.27,1.2,1.11,0.94,1.89l0,0c-0.21,0.62-0.79,1.02-1.42,1.02l0,0 C63.34,137.68,63.18,137.65,63.02,137.6z M194,133.64c-0.27-0.78,0.15-1.63,0.94-1.89l0,0c0.78-0.26,1.63,0.15,1.89,0.94l0,0 c0.27,0.78-0.15,1.63-0.94,1.89l0,0c-0.16,0.06-0.32,0.08-0.48,0.08l0,0C194.8,134.66,194.21,134.27,194,133.64z M53.67,134.44 c-0.78-0.27-1.2-1.11-0.94-1.89l0,0c0.27-0.78,1.11-1.2,1.9-0.94l0,0c0.78,0.27,1.2,1.11,0.94,1.89l0,0 c-0.21,0.62-0.79,1.01-1.42,1.01l0,0C53.99,134.51,53.83,134.49,53.67,134.44z M203.36,130.48c-0.27-0.78,0.15-1.63,0.94-1.9l0,0 c0.78-0.26,1.63,0.16,1.89,0.94l0,0c0.27,0.78-0.15,1.63-0.94,1.9l0,0c-0.16,0.05-0.32,0.08-0.48,0.08l0,0 C204.15,131.5,203.57,131.11,203.36,130.48z M44.32,131.27c-0.78-0.26-1.2-1.11-0.93-1.89l0,0c0.26-0.78,1.11-1.2,1.89-0.94l0,0 c0.78,0.26,1.2,1.11,0.94,1.89l0,0c-0.21,0.62-0.79,1.02-1.42,1.02l0,0C44.64,131.35,44.47,131.33,44.32,131.27z M212.72,127.34 c-0.28-0.77,0.13-1.63,0.9-1.91l0,0c0.78-0.28,1.63,0.13,1.91,0.9l0,0c0.28,0.77-0.13,1.63-0.9,1.91l0,0 c-0.17,0.06-0.34,0.09-0.51,0.09l0,0C213.51,128.33,212.94,127.95,212.72,127.34z M34.9,128.07c-0.77-0.3-1.15-1.17-0.84-1.94l0,0 c0.3-0.77,1.17-1.14,1.94-0.84l0,0c0.77,0.3,1.14,1.17,0.84,1.94l0,0c-0.23,0.59-0.8,0.95-1.39,0.95l0,0 C35.26,128.18,35.08,128.14,34.9,128.07z M220.87,122.02c-0.7-0.43-0.92-1.35-0.48-2.05l0,0c0.43-0.7,1.35-0.92,2.05-0.49l0,0 c0.7,0.44,0.92,1.36,0.49,2.06l0,0c-0.28,0.46-0.77,0.71-1.27,0.71l0,0C221.39,122.24,221.11,122.17,220.87,122.02z M26.81,121.1 c-0.41-0.72-0.17-1.63,0.55-2.04l0,0c0.72-0.41,1.63-0.17,2.04,0.55l0,0c0.41,0.72,0.17,1.63-0.55,2.04l0,0 c-0.24,0.13-0.49,0.2-0.75,0.2l0,0C27.6,121.85,27.09,121.58,26.81,121.1z M222.36,111.29c0-0.82,0.67-1.49,1.49-1.49l0,0 c0.83,0,1.49,0.67,1.49,1.49l0,0c0,0.83-0.67,1.49-1.49,1.49l0,0C223.02,112.78,222.36,112.11,222.36,111.29z M24.66,110.83 c0-0.83,0.67-1.49,1.49-1.49l0,0c0.82,0,1.49,0.67,1.49,1.49l0,0c0,0.82-0.67,1.49-1.49,1.49l0,0 C25.32,112.33,24.66,111.65,24.66,110.83z M222.36,101.41c0-0.82,0.67-1.49,1.49-1.49l0,0c0.83,0,1.49,0.67,1.49,1.49l0,0 c0,0.83-0.67,1.49-1.49,1.49l0,0C223.02,102.91,222.36,102.24,222.36,101.41z M24.66,100.96c0-0.83,0.67-1.49,1.49-1.49l0,0 c0.82,0,1.49,0.67,1.49,1.49l0,0c0,0.82-0.67,1.49-1.49,1.49l0,0C25.32,102.45,24.66,101.78,24.66,100.96z M222.36,91.54 c0-0.82,0.67-1.49,1.49-1.49l0,0c0.83,0,1.49,0.67,1.49,1.49l0,0c0,0.83-0.67,1.49-1.49,1.49l0,0 C223.02,93.03,222.36,92.36,222.36,91.54z M24.66,91.09c0-0.83,0.67-1.49,1.49-1.49l0,0c0.82,0,1.49,0.67,1.49,1.49l0,0 c0,0.82-0.67,1.49-1.49,1.49l0,0C25.32,92.58,24.66,91.91,24.66,91.09z M222.36,81.67c0-0.82,0.67-1.49,1.49-1.49l0,0 c0.83,0,1.49,0.67,1.49,1.49l0,0c0,0.83-0.67,1.49-1.49,1.49l0,0C223.02,83.16,222.36,82.49,222.36,81.67z M24.66,81.21 c0-0.83,0.67-1.49,1.49-1.49l0,0c0.82,0,1.49,0.67,1.49,1.49l0,0c0,0.82-0.67,1.49-1.49,1.49l0,0 C25.32,82.71,24.66,82.03,24.66,81.21z M222.36,71.79c0-0.82,0.67-1.49,1.49-1.49l0,0c0.83,0,1.49,0.67,1.49,1.49l0,0 c0,0.83-0.67,1.49-1.49,1.49l0,0C223.02,73.28,222.36,72.62,222.36,71.79z M24.66,71.34c0-0.83,0.67-1.49,1.49-1.49l0,0 c0.82,0,1.49,0.67,1.49,1.49l0,0c0,0.82-0.67,1.49-1.49,1.49l0,0C25.32,72.83,24.66,72.16,24.66,71.34z M222.32,62.04 c-0.06-0.82,0.55-1.54,1.38-1.6l0,0c0.82-0.07,1.54,0.55,1.6,1.37l0,0c0.06,0.82-0.55,1.54-1.38,1.6l0,0 c-0.04,0-0.08,0.01-0.11,0.01l0,0C223.04,63.42,222.39,62.82,222.32,62.04z M26.06,62.95c-0.82-0.09-1.41-0.83-1.32-1.65l0,0l0,0 l0,0c0.1-0.82,0.83-1.41,1.65-1.32l0,0c0.82,0.09,1.41,0.83,1.32,1.65l0,0c-0.08,0.76-0.73,1.33-1.48,1.33l0,0 C26.18,62.96,26.12,62.96,26.06,62.95z M218.49,54.47c-0.62-0.54-0.69-1.48-0.15-2.11l0,0c0.54-0.62,1.48-0.69,2.11-0.15l0,0 c0.62,0.54,0.69,1.48,0.15,2.11l0,0c-0.3,0.34-0.71,0.52-1.13,0.52l0,0C219.12,54.83,218.77,54.71,218.49,54.47z M29.72,53.98 c-0.52-0.64-0.41-1.58,0.23-2.1l0,0l0,0l0,0c0.64-0.52,1.58-0.41,2.1,0.23l0,0c0.52,0.64,0.42,1.59-0.22,2.1h0 c-0.27,0.22-0.6,0.33-0.93,0.33l0,0C30.45,54.54,30.01,54.35,29.72,53.98z M208.85,50.26c0-0.83,0.67-1.49,1.49-1.49l0,0 c0.83,0,1.49,0.67,1.49,1.49l0,0c0,0.82-0.67,1.49-1.49,1.49l0,0C209.51,51.75,208.85,51.08,208.85,50.26z M198.97,50.26 c0-0.83,0.67-1.49,1.49-1.49l0,0c0.83,0,1.49,0.67,1.49,1.49l0,0c0,0.82-0.67,1.49-1.49,1.49l0,0 C199.64,51.75,198.97,51.08,198.97,50.26z M189.1,50.26c0-0.83,0.67-1.49,1.49-1.49l0,0c0.83,0,1.49,0.67,1.49,1.49l0,0 c0,0.82-0.67,1.49-1.49,1.49l0,0C189.77,51.75,189.1,51.08,189.1,50.26z M179.23,50.26c0-0.83,0.67-1.49,1.49-1.49l0,0 c0.83,0,1.49,0.67,1.49,1.49l0,0c0,0.82-0.67,1.49-1.49,1.49l0,0C179.89,51.75,179.23,51.08,179.23,50.26z M68.24,50.26 c0-0.83,0.67-1.49,1.49-1.49l0,0c0.82,0,1.49,0.67,1.49,1.49l0,0c0,0.82-0.67,1.49-1.49,1.49l0,0 C68.91,51.75,68.24,51.08,68.24,50.26z M58.37,50.26c0-0.83,0.67-1.49,1.49-1.49l0,0c0.83,0,1.5,0.67,1.5,1.49l0,0 c0,0.82-0.67,1.49-1.5,1.49l0,0C59.04,51.75,58.37,51.08,58.37,50.26z M48.49,50.26c0-0.83,0.67-1.49,1.49-1.49l0,0 c0.83,0,1.49,0.67,1.49,1.49l0,0c0,0.82-0.67,1.49-1.49,1.49l0,0C49.16,51.75,48.49,51.08,48.49,50.26z M38.62,50.26 c0-0.83,0.67-1.49,1.49-1.49l0,0c0.83,0,1.49,0.67,1.49,1.49l0,0c0,0.82-0.67,1.49-1.49,1.49l0,0 C39.29,51.75,38.62,51.08,38.62,50.26z"></path> </g> </g> <path d="M125,150.67c-4.19,0-8.33-0.68-12.3-2.02l-75.32-25.46c-4.36-1.47-7.29-5.56-7.29-10.16V62.9c0-4.8,3.91-8.71,8.71-8.71 h43.74l2.46-7.76c3.63-11.47,20.94-20.12,40.25-20.12s36.62,8.65,40.25,20.12l2.46,7.76h43.24c4.8,0,8.71,3.91,8.71,8.71v50.13 c0,4.6-2.93,8.69-7.29,10.16l-75.32,25.46C133.33,149.99,129.19,150.67,125,150.67z"></path> <path class="st1" d="M151.14,54.05c-0.91-0.73-1.65-1.65-2.28-2.65c-0.64-1.01-1.19-2.1-1.73-3.2s-1.09-2.2-1.73-3.2 c-0.64-1.01-1.37-1.92-2.28-2.65c-0.91-0.73-2.01-1.28-3.39-1.55l0.1-0.1c0.14-0.14,0.14-0.36,0-0.49c-0.14-0.14-0.36-0.14-0.49,0 L125,54.53L110.68,40.2c-0.14-0.14-0.36-0.14-0.49,0c-0.14,0.14-0.14,0.36,0,0.49l0.1,0.1c-1.37,0.27-2.47,0.82-3.39,1.55 c-0.91,0.73-1.65,1.65-2.28,2.65c-0.64,1.01-1.19,2.1-1.73,3.2s-1.09,2.2-1.73,3.2c-0.64,1.01-1.37,1.92-2.28,2.65 s-2.01,1.28-3.39,1.55c0.82,0.82,1.65,1.65,2.47,2.47c0.81,0.81,1.61,1.61,2.42,2.42c0.82,0.82,1.65,1.65,2.47,2.47 c0.79,0.79,1.58,1.58,2.37,2.37c1.37-0.27,2.47-0.82,3.39-1.55c0.91-0.73,1.65-1.65,2.28-2.65c0.64-1.01,1.19-2.1,1.73-3.2 c0.55-1.1,1.09-2.2,1.73-3.2c0.64-1.01,1.37-1.92,2.28-2.65c0.91-0.73,2.01-1.28,3.39-1.55l4.5,4.5l-7.15,7.15 c-0.14,0.14-0.14,0.36,0,0.49s0.36,0.14,0.49,0l7.15-7.15l7.15,7.15c0.14,0.14,0.36,0.14,0.49,0s0.14-0.36,0-0.49l-7.15-7.15 l4.5-4.5c1.37,0.27,2.47,0.82,3.39,1.55c0.91,0.73,1.65,1.65,2.28,2.65c0.64,1.01,1.19,2.1,1.73,3.2c0.55,1.1,1.09,2.2,1.73,3.2 c0.64,1.01,1.37,1.92,2.28,2.65s2.01,1.28,3.39,1.55c0.79-0.79,1.58-1.58,2.37-2.37c0.82-0.82,1.65-1.65,2.47-2.47 c0.81-0.81,1.61-1.61,2.42-2.42c0.82-0.82,1.65-1.65,2.47-2.47C153.15,55.33,152.05,54.78,151.14,54.05z M100.66,60.43 c-0.81-0.81-1.61-1.61-2.42-2.42c1.24-0.29,2.25-0.81,3.09-1.49c-0.76-0.76-1.53-1.53-2.29-2.29c0.91-0.73,1.65-1.65,2.28-2.65 c0.76,0.76,1.53,1.53,2.29,2.29c0.64-1.01,1.19-2.1,1.73-3.2c-0.76-0.76-1.53-1.53-2.29-2.29c0.55-1.1,1.09-2.2,1.73-3.2 c0.76,0.76,1.53,1.53,2.29,2.29c0.64-1.01,1.37-1.92,2.28-2.65c-0.76-0.76-1.53-1.53-2.29-2.29c0.85-0.68,1.86-1.2,3.09-1.49 c0.76,0.76,1.53,1.53,2.29,2.29c-1.24,0.29-2.25,0.81-3.09,1.49c0.81,0.81,1.61,1.61,2.42,2.42c-0.91,0.73-1.65,1.65-2.28,2.65 c-0.81-0.81-1.61-1.61-2.42-2.42c-0.64,1.01-1.19,2.1-1.73,3.2c0.81,0.81,1.61,1.61,2.42,2.42c-0.55,1.1-1.09,2.2-1.73,3.2 c-0.81-0.81-1.61-1.61-2.42-2.42c-0.64,1.01-1.37,1.92-2.28,2.65c0.81,0.81,1.61,1.61,2.42,2.42 C102.9,59.62,101.89,60.14,100.66,60.43z M107.82,53.14c0.55-1.1,1.09-2.2,1.73-3.2c0.77,0.77,1.55,1.55,2.32,2.32 c-0.64,1.01-1.19,2.1-1.73,3.2C109.36,54.68,108.59,53.91,107.82,53.14z M108.4,58.66c-0.64,1.01-1.37,1.92-2.28,2.65 c-0.77-0.77-1.55-1.55-2.32-2.32c0.91-0.73,1.65-1.65,2.28-2.65C106.86,57.11,107.63,57.88,108.4,58.66z M105.32,65.09 c-0.73-0.73-1.46-1.46-2.19-2.19c1.24-0.29,2.25-0.81,3.09-1.49c0.73,0.73,1.46,1.46,2.19,2.19 C107.56,64.28,106.55,64.8,105.32,65.09z M110.69,60.95c-0.73-0.73-1.46-1.46-2.19-2.19c0.64-1.01,1.19-2.1,1.73-3.2 c0.73,0.73,1.46,1.46,2.19,2.19C111.88,58.84,111.33,59.94,110.69,60.95z M114.16,54.54c-0.73-0.73-1.46-1.46-2.19-2.19 c0.64-1.01,1.37-1.92,2.28-2.65c0.73,0.73,1.46,1.46,2.19,2.19C115.53,52.62,114.8,53.54,114.16,54.54z M114.15,49.6 c-0.77-0.77-1.55-1.55-2.32-2.32c0.85-0.68,1.86-1.2,3.09-1.49c0.77,0.77,1.55,1.55,2.32,2.32C116.01,48.4,115,48.92,114.15,49.6z M132.75,48.12c0.77-0.77,1.55-1.55,2.32-2.32c1.24,0.29,2.25,0.81,3.09,1.49c-0.77,0.77-1.55,1.55-2.32,2.32 C135,48.92,133.99,48.4,132.75,48.12z M139.86,55.46c-0.55-1.1-1.09-2.2-1.73-3.2c0.77-0.77,1.55-1.55,2.32-2.32 c0.64,1.01,1.19,2.1,1.73,3.2C141.41,53.91,140.64,54.68,139.86,55.46z M143.92,56.34c0.64,1.01,1.37,1.92,2.28,2.65 c-0.77,0.77-1.55,1.55-2.32,2.32c-0.91-0.73-1.65-1.65-2.28-2.65C142.37,57.88,143.14,57.11,143.92,56.34z M135.84,54.54 c-0.64-1.01-1.37-1.92-2.28-2.65c0.73-0.73,1.46-1.46,2.19-2.19c0.91,0.73,1.65,1.65,2.28,2.65 C137.3,53.08,136.57,53.81,135.84,54.54z M139.31,60.95c-0.64-1.01-1.19-2.1-1.73-3.2c0.73-0.73,1.46-1.46,2.19-2.19 c0.55,1.1,1.09,2.2,1.73,3.2C140.77,59.49,140.04,60.22,139.31,60.95z M144.68,65.09c-1.24-0.29-2.25-0.81-3.09-1.49 c0.73-0.73,1.46-1.46,2.19-2.19c0.85,0.68,1.86,1.2,3.09,1.49C146.15,63.63,145.41,64.36,144.68,65.09z M149.34,60.43 c-1.24-0.29-2.25-0.81-3.09-1.49c0.81-0.81,1.61-1.61,2.42-2.42c-0.91-0.73-1.65-1.65-2.28-2.65c-0.81,0.81-1.61,1.61-2.42,2.42 c-0.64-1.01-1.19-2.1-1.73-3.2c0.81-0.81,1.61-1.61,2.42-2.42c-0.55-1.1-1.09-2.2-1.73-3.2c-0.81,0.81-1.61,1.61-2.42,2.42 c-0.64-1.01-1.37-1.92-2.28-2.65c0.81-0.81,1.61-1.61,2.42-2.42c-0.85-0.68-1.86-1.2-3.09-1.49c0.76-0.76,1.53-1.53,2.29-2.29 c1.24,0.29,2.25,0.81,3.09,1.49c-0.76,0.76-1.53,1.53-2.29,2.29c0.91,0.73,1.65,1.65,2.28,2.65c0.76-0.76,1.53-1.53,2.29-2.29 c0.64,1.01,1.19,2.1,1.73,3.2c-0.76,0.76-1.53,1.53-2.29,2.29c0.55,1.1,1.09,2.2,1.73,3.2c0.76-0.76,1.53-1.53,2.29-2.29 c0.64,1.01,1.37,1.92,2.28,2.65c-0.76,0.76-1.53,1.53-2.29,2.29c0.85,0.68,1.86,1.2,3.09,1.49 C150.96,58.81,150.15,59.62,149.34,60.43z"></path> <g> <path class="st1" d="M151.1,128.3c-0.13-0.27-0.37-0.46-0.67-0.55c-0.13-0.04-0.26-0.05-0.39-0.05c-0.1,0-0.21,0.01-0.3,0.03 c-0.3,0.06-0.56,0.22-0.74,0.46l-0.03,0.04l-0.02,0.04c-0.13,0.25-0.28,0.5-0.44,0.77c-0.16,0.27-0.33,0.54-0.52,0.81 c-0.35,0.51-0.71,0.96-1.08,1.32c-0.37,0.36-0.72,0.65-1.06,0.87c-0.31,0.2-0.61,0.34-0.87,0.42c-0.16,0.04-0.3,0.07-0.41,0.07 c-0.03,0-0.05,0-0.08,0c-0.08-0.04-0.18-0.11-0.27-0.32c-0.07-0.18-0.13-0.36-0.15-0.54c0.99-0.34,1.91-0.82,2.73-1.42 c0.98-0.71,1.77-1.61,2.36-2.67c0.37-0.58,0.55-1.11,0.55-1.61c0-0.61-0.24-1.12-0.69-1.49c-0.41-0.34-0.95-0.53-1.59-0.54l-0.12,0 c-0.53,0-1.07,0.09-1.6,0.26c-0.54,0.18-1.05,0.41-1.52,0.7c-0.47,0.28-0.91,0.6-1.29,0.94c-0.38,0.35-0.68,0.66-0.91,0.97 c-0.67,0.9-1.17,1.73-1.49,2.49c-0.03,0.08-0.06,0.16-0.09,0.24l0,0.01c-0.07,0.11-0.14,0.23-0.22,0.34 c-0.24,0.38-0.51,0.74-0.78,1.07c-0.26,0.32-0.54,0.61-0.82,0.86c0.02-0.06,0.04-0.13,0.06-0.2c0.13-0.4,0.28-0.84,0.46-1.31 c0.19-0.47,0.38-0.94,0.59-1.42c0.21-0.48,0.4-0.9,0.58-1.27c0.11-0.24,0.21-0.45,0.3-0.63c0.09-0.19,0.16-0.35,0.2-0.48 c0.1-0.3,0.16-0.76-0.16-1.27c-0.19-0.3-0.44-0.56-0.75-0.77c-0.28-0.2-0.58-0.35-0.89-0.45c-0.2-0.07-0.39-0.1-0.57-0.1 c-0.13,0-0.26,0.02-0.38,0.05h-0.56l-0.14,0.53c-0.12,0.47-0.27,0.96-0.45,1.47c-0.18,0.53-0.37,1.06-0.57,1.6l-0.35,0.97 c-0.01,0.01-0.01,0.01-0.01,0.02c-0.09,0.11-0.17,0.23-0.23,0.37l-0.02,0.06c-0.19,0.32-0.39,0.64-0.6,0.95 c-0.24,0.37-0.5,0.72-0.77,1.05c-0.24,0.29-0.49,0.55-0.75,0.78c0.01-0.05,0.03-0.1,0.04-0.15c0.11-0.39,0.26-0.82,0.44-1.28 c0.17-0.46,0.37-0.92,0.57-1.38c0.2-0.47,0.39-0.88,0.57-1.27l0.51-1.13l0.02-0.06c0.1-0.3,0.16-0.76-0.16-1.27 c-0.19-0.3-0.43-0.56-0.73-0.77c-0.28-0.2-0.58-0.35-0.88-0.45c-0.2-0.07-0.39-0.1-0.57-0.1c-0.13,0-0.26,0.02-0.38,0.05h-0.55 l-0.14,0.53c-0.12,0.45-0.26,0.92-0.44,1.43c-0.18,0.51-0.36,1.02-0.54,1.53c-0.1,0.26-0.2,0.53-0.3,0.81 c-0.05,0.09-0.11,0.17-0.15,0.24c-0.07,0.1-0.13,0.19-0.2,0.31l-0.68,1.1h0.01c0,0.01-0.01,0.01-0.01,0.02 c-0.24,0.36-0.5,0.72-0.77,1.04c-0.23,0.29-0.48,0.54-0.73,0.77c0.01-0.04,0.02-0.08,0.04-0.13c0.11-0.39,0.26-0.82,0.44-1.28 c0.19-0.48,0.39-0.97,0.62-1.47c0.23-0.51,0.46-1,0.68-1.46c0.22-0.47,0.43-0.89,0.63-1.27c0.19-0.38,0.34-0.67,0.46-0.9l0.11-0.22 c0.2-0.39,0.41-0.81,0.64-1.25l0.12-0.24c0.18-0.35,0.35-0.69,0.5-1.01c0.2-0.4,0.37-0.76,0.52-1.07c0.16-0.35,0.26-0.58,0.32-0.73 c0.16-0.43,0.08-0.89-0.2-1.3c-0.21-0.29-0.47-0.54-0.79-0.74c-0.31-0.19-0.63-0.33-0.97-0.41c-0.18-0.04-0.34-0.06-0.49-0.06 c-0.23,0-0.43,0.05-0.62,0.14l-0.29,0.14l-0.08,0.31c-0.17,0.62-0.43,1.36-0.78,2.19c-0.36,0.86-0.75,1.72-1.15,2.54l-0.73,1.45 c-0.54,1.06-1.05,2.15-1.53,3.23c-0.07,0.15-0.13,0.31-0.19,0.46l-0.01,0.03l-0.04,0.05c-0.22,0.36-0.46,0.74-0.72,1.14 c-0.25,0.38-0.51,0.74-0.78,1.08c-0.22,0.27-0.45,0.52-0.68,0.73c0.03-0.1,0.06-0.21,0.1-0.32c0.08-0.24,0.16-0.47,0.26-0.71 c0.1-0.24,0.19-0.47,0.31-0.73c0.03-0.08,0.06-0.16,0.1-0.25c0.06-0.12,0.1-0.23,0.14-0.35c0.08-0.29,0.12-0.74-0.2-1.24 c-0.07-0.11-0.15-0.22-0.24-0.32c0.13-0.16,0.2-0.34,0.2-0.54c0.01-0.3,0-0.61-0.03-0.91c-0.04-0.33-0.12-0.65-0.25-0.94 c-0.14-0.32-0.33-0.6-0.59-0.85c-0.27-0.26-0.6-0.44-1.01-0.55c-0.36-0.09-0.74-0.13-1.14-0.13c-0.63,0-1.25,0.12-1.84,0.36 c-0.33,0.13-0.66,0.3-0.97,0.49c0.18-0.24,0.37-0.47,0.54-0.71c0.74-0.99,1.4-1.97,1.98-2.9c0.58-0.94,1.05-1.81,1.4-2.59 l0.02-0.03l0.01-0.04c0.11-0.35,0.03-0.72-0.27-1.11c-0.18-0.24-0.38-0.46-0.61-0.66c-0.24-0.21-0.49-0.38-0.74-0.5 c-0.19-0.09-0.37-0.14-0.54-0.14c-0.34,0-0.63,0.18-0.78,0.48l-0.03,0.06c-0.43,1.11-0.96,2.25-1.57,3.38 c-0.62,1.14-1.32,2.3-2.08,3.42c-0.76,1.14-1.6,2.25-2.48,3.32c-0.89,1.08-1.83,2.12-2.78,3.09c-0.96,0.98-1.97,1.9-2.98,2.74 c-0.48,0.4-0.96,0.78-1.44,1.13c0.06-0.11,0.12-0.22,0.19-0.33c0.2-0.35,0.43-0.72,0.68-1.13c0.38-0.63,0.79-1.32,1.24-2.08 c0.45-0.76,0.9-1.54,1.33-2.32c0.44-0.79,0.87-1.59,1.26-2.36c0.41-0.79,0.77-1.55,1.07-2.25c0.31-0.72,0.55-1.39,0.71-1.99 c0.18-0.67,0.25-1.21,0.2-1.67l0-0.03l-0.01-0.03c-0.06-0.29-0.18-0.57-0.38-0.84c-0.18-0.24-0.39-0.46-0.64-0.64 c-0.24-0.17-0.5-0.32-0.77-0.43c-0.3-0.12-0.61-0.18-0.93-0.18c0,0,0,0,0,0c-0.72,0.01-1.47,0.14-2.23,0.38 c-0.74,0.23-1.48,0.54-2.2,0.93c-0.72,0.38-1.43,0.83-2.11,1.33c-0.68,0.5-1.31,1.04-1.89,1.6c-0.58,0.56-1.1,1.14-1.57,1.73 c-0.47,0.6-0.85,1.2-1.12,1.77l-0.03,0.06l-0.02,0.07c-0.14,0.57,0.35,1.01,0.54,1.18c0.26,0.24,0.56,0.46,0.89,0.68 c0.33,0.22,0.65,0.39,0.97,0.52c0.22,0.09,0.4,0.13,0.57,0.13c0.14,0,0.28-0.03,0.39-0.09h0.59l-0.11-0.81 c-0.03-0.21,0.07-0.52,0.29-0.88c0.27-0.47,0.65-0.96,1.12-1.47c0.49-0.53,1.05-1.06,1.65-1.59c0.6-0.52,1.21-1.01,1.81-1.45 c0.57-0.41,1.09-0.76,1.56-1.03c-0.46,1.16-1,2.29-1.6,3.36c-0.71,1.27-1.43,2.5-2.14,3.64c-0.72,1.18-1.42,2.35-2.07,3.48 c-0.67,1.17-1.24,2.39-1.69,3.63l-0.04,0.12v0.13c0,0.31,0.09,0.62,0.25,0.92c0.15,0.27,0.36,0.5,0.61,0.71 c0.24,0.19,0.5,0.34,0.78,0.45c0.29,0.12,0.59,0.18,0.9,0.2l0.05,0l0.05,0c0.61-0.04,1.29-0.28,2.09-0.71 c0.73-0.39,1.52-0.92,2.36-1.56c0.83-0.63,1.7-1.38,2.6-2.21c0.9-0.84,1.81-1.74,2.69-2.67c0.19-0.2,0.38-0.42,0.58-0.63 c-0.02,0.05-0.04,0.09-0.06,0.14c-0.22,0.53-0.36,1.04-0.41,1.47c-0.02,0.09-0.03,0.2-0.04,0.34c-0.01,0.11-0.01,0.23-0.01,0.34 c0,0.32,0.05,0.65,0.14,0.97c0.1,0.36,0.27,0.69,0.49,0.99c0.23,0.31,0.55,0.58,0.94,0.8c0.4,0.23,0.88,0.37,1.44,0.41l0.06,0 c0.36,0,0.73-0.07,1.09-0.21c0.32-0.13,0.64-0.29,0.95-0.49c0.23-0.15,0.46-0.32,0.69-0.51c0.09,0.17,0.19,0.33,0.32,0.49 c0.4,0.48,1.02,0.75,1.85,0.82c0.06,0,0.11,0,0.17,0c0.27,0,0.52-0.03,0.77-0.09c0.27-0.07,0.52-0.16,0.73-0.27 c0.21-0.11,0.4-0.22,0.58-0.35c0.16-0.11,0.28-0.21,0.38-0.3c0.15-0.13,0.3-0.26,0.44-0.4c0.08,0.21,0.18,0.4,0.3,0.58 c0.25,0.35,0.74,0.78,1.7,0.83c0.3,0,0.6-0.04,0.89-0.11c0.26-0.07,0.51-0.15,0.73-0.25c0.23-0.1,0.44-0.22,0.61-0.35 c0.16-0.11,0.28-0.21,0.37-0.29c0.16-0.13,0.32-0.27,0.47-0.42c0.08,0.22,0.2,0.43,0.34,0.62c0.26,0.34,0.75,0.75,1.67,0.8 c0.31,0,0.61-0.04,0.89-0.11c0.26-0.07,0.51-0.15,0.73-0.25c0.23-0.1,0.43-0.22,0.61-0.35c0.15-0.11,0.28-0.21,0.37-0.28 c0.15-0.12,0.29-0.24,0.43-0.38c0.08,0.2,0.18,0.38,0.31,0.55c0.26,0.35,0.76,0.77,1.7,0.82c0.31,0,0.6-0.04,0.89-0.11 c0.26-0.07,0.51-0.15,0.73-0.25c0.23-0.1,0.43-0.22,0.61-0.35c0.15-0.11,0.28-0.21,0.39-0.3c0.24-0.21,0.47-0.43,0.69-0.66 c0.17,0.31,0.39,0.59,0.67,0.83c0.65,0.57,1.54,0.86,2.64,0.86c0.16,0,0.38-0.01,0.66-0.02c0.32-0.02,0.66-0.07,1.01-0.16 c0.36-0.09,0.74-0.23,1.14-0.41c0.41-0.19,0.82-0.46,1.24-0.83c0.66-0.62,1.23-1.26,1.69-1.9c0.45-0.62,0.83-1.19,1.14-1.69 l0.36-0.59C151.3,128.84,151.19,128.47,151.1,128.3z M145.41,128.01c0.31-0.44,0.67-0.83,1.06-1.15c0.2-0.17,0.41-0.3,0.61-0.4 c0,0.01-0.01,0.02-0.01,0.03c-0.43,0.82-0.99,1.52-1.65,2.08c-0.21,0.18-0.42,0.34-0.64,0.49 C144.95,128.7,145.17,128.35,145.41,128.01z M121.7,126.82h-0.66l-0.06,0.65c-0.02,0.24-0.08,0.52-0.16,0.83 c-0.09,0.31-0.2,0.63-0.31,0.95c-0.15,0.23-0.33,0.5-0.56,0.79c-0.24,0.32-0.5,0.64-0.77,0.94c-0.25,0.29-0.5,0.54-0.74,0.75 c-0.24,0.21-0.34,0.24-0.34,0.24c-0.09,0.02-0.14,0.02-0.17,0.03c-0.02-0.03-0.03-0.07-0.04-0.1c-0.02-0.11-0.03-0.23-0.03-0.36 c0-0.16,0.02-0.31,0.04-0.47c0.03-0.18,0.07-0.34,0.1-0.47c0.08-0.29,0.19-0.61,0.33-0.95c0.14-0.34,0.31-0.69,0.5-1.03 c0.19-0.34,0.41-0.68,0.64-0.99c0.22-0.3,0.46-0.57,0.72-0.8c0.24-0.22,0.49-0.39,0.74-0.52c0.18-0.09,0.36-0.14,0.58-0.14 c0,0,0.05,0.01,0.05,0c0.03,0.03,0.06,0.06,0.07,0.1c0.04,0.09,0.07,0.18,0.08,0.29c0.01,0.08,0.02,0.16,0.03,0.24 C121.72,126.82,121.71,126.82,121.7,126.82z"></path> <path class="st0" d="M118.36,123.58c0.73-0.98,1.38-1.93,1.94-2.85c0.57-0.92,1.02-1.75,1.36-2.51c0.04-0.11-0.02-0.27-0.16-0.46 c-0.14-0.19-0.31-0.38-0.51-0.55c-0.19-0.17-0.39-0.3-0.58-0.4c-0.19-0.09-0.32-0.09-0.37,0.01c-0.44,1.14-0.98,2.3-1.61,3.47 c-0.64,1.17-1.34,2.33-2.11,3.48c-0.77,1.15-1.61,2.28-2.52,3.37c-0.91,1.1-1.85,2.15-2.83,3.14c-0.98,0.99-1.99,1.92-3.04,2.79 c-1.04,0.87-2.09,1.64-3.13,2.32c-0.04,0-0.09-0.03-0.15-0.1c-0.06-0.07-0.09-0.15-0.09-0.25c0-0.08,0.04-0.21,0.13-0.4 c0.09-0.19,0.21-0.43,0.37-0.71c0.16-0.28,0.34-0.6,0.55-0.96c0.21-0.36,0.44-0.74,0.69-1.14c0.38-0.63,0.79-1.32,1.24-2.07 c0.45-0.75,0.89-1.52,1.32-2.3c0.43-0.78,0.85-1.56,1.25-2.34c0.4-0.78,0.75-1.51,1.05-2.21c0.3-0.69,0.52-1.32,0.68-1.9 c0.16-0.57,0.22-1.04,0.18-1.4c-0.04-0.19-0.12-0.37-0.25-0.56c-0.13-0.18-0.29-0.34-0.48-0.48c-0.19-0.14-0.39-0.25-0.61-0.34 c-0.22-0.09-0.44-0.13-0.65-0.13c-0.65,0.01-1.33,0.13-2.03,0.35c-0.7,0.22-1.39,0.51-2.08,0.88c-0.69,0.36-1.36,0.79-2.02,1.27 c-0.65,0.48-1.26,1-1.82,1.54c-0.56,0.54-1.06,1.09-1.5,1.66c-0.44,0.57-0.79,1.11-1.04,1.64c-0.03,0.1,0.08,0.26,0.32,0.47 c0.24,0.21,0.51,0.42,0.8,0.61c0.3,0.19,0.58,0.35,0.84,0.45c0.26,0.11,0.42,0.1,0.45-0.01h0.02c-0.05-0.38,0.08-0.82,0.38-1.34 c0.3-0.52,0.71-1.05,1.22-1.59c0.51-0.55,1.08-1.09,1.71-1.64c0.63-0.55,1.25-1.04,1.86-1.49c0.61-0.45,1.17-0.81,1.69-1.1 c0.52-0.29,0.91-0.46,1.17-0.51c0.1,0.01,0.14,0.11,0.13,0.29c-0.01,0.18-0.05,0.37-0.11,0.56c-0.53,1.41-1.15,2.75-1.87,4.03 c-0.72,1.28-1.43,2.5-2.15,3.67c-0.72,1.17-1.4,2.32-2.06,3.46c-0.65,1.14-1.2,2.31-1.64,3.52c0,0.19,0.05,0.38,0.16,0.57 c0.11,0.19,0.25,0.35,0.43,0.5c0.18,0.14,0.38,0.26,0.6,0.35c0.22,0.09,0.44,0.14,0.67,0.15c0.5-0.04,1.1-0.24,1.8-0.62 c0.7-0.38,1.45-0.88,2.26-1.5c0.81-0.62,1.66-1.35,2.55-2.17c0.89-0.82,1.77-1.7,2.66-2.64c0.89-0.94,1.75-1.9,2.59-2.9 C116.84,125.55,117.63,124.56,118.36,123.58z"></path> <path class="st0" d="M150.46,128.62c-0.04-0.09-0.12-0.15-0.23-0.18c-0.11-0.03-0.22-0.04-0.35-0.01c-0.13,0.02-0.23,0.09-0.3,0.19 c-0.14,0.25-0.29,0.52-0.45,0.79c-0.16,0.28-0.35,0.56-0.55,0.85c-0.38,0.55-0.77,1.03-1.17,1.42c-0.4,0.4-0.79,0.72-1.17,0.96 c-0.38,0.25-0.74,0.41-1.07,0.51c-0.34,0.09-0.63,0.12-0.87,0.07c-0.34-0.11-0.59-0.36-0.74-0.74c-0.16-0.38-0.24-0.78-0.24-1.18 v-0.15c1.13-0.33,2.15-0.82,3.06-1.48c0.91-0.66,1.63-1.48,2.17-2.46c0.3-0.46,0.45-0.88,0.45-1.24c0-0.39-0.14-0.7-0.43-0.94 c-0.29-0.24-0.67-0.37-1.15-0.38c-0.49-0.01-0.98,0.06-1.47,0.23c-0.49,0.16-0.95,0.37-1.39,0.63c-0.43,0.26-0.82,0.54-1.17,0.86 c-0.35,0.31-0.62,0.6-0.82,0.87c-0.64,0.85-1.11,1.63-1.4,2.33c-0.04,0.1-0.07,0.19-0.1,0.29c-0.09,0.14-0.17,0.28-0.26,0.42 c-0.26,0.4-0.53,0.78-0.83,1.14c-0.3,0.36-0.6,0.68-0.92,0.96c-0.32,0.28-0.65,0.48-0.99,0.59h-0.17c-0.08,0-0.11-0.17-0.11-0.51 c0-0.28,0.07-0.63,0.2-1.06c0.13-0.43,0.29-0.88,0.48-1.36c0.19-0.48,0.39-0.96,0.6-1.44c0.21-0.48,0.41-0.91,0.58-1.29 c0.11-0.24,0.21-0.45,0.29-0.62c0.08-0.18,0.14-0.31,0.18-0.41c0.08-0.21,0.04-0.43-0.09-0.65c-0.14-0.22-0.32-0.41-0.55-0.57 c-0.23-0.16-0.46-0.28-0.71-0.36c-0.24-0.08-0.44-0.09-0.59-0.01h-0.13c-0.13,0.48-0.28,0.99-0.46,1.52 c-0.18,0.53-0.37,1.07-0.58,1.61c-0.06,0.18-0.13,0.35-0.19,0.53c-0.06,0.18-0.13,0.35-0.19,0.53c-0.04,0.06-0.08,0.12-0.12,0.17 c-0.04,0.05-0.08,0.11-0.1,0.17h0.02c-0.21,0.36-0.45,0.74-0.71,1.13c-0.26,0.39-0.53,0.76-0.81,1.1 c-0.28,0.35-0.58,0.65-0.89,0.92c-0.31,0.27-0.64,0.47-0.98,0.59h-0.15c-0.08,0-0.11-0.17-0.11-0.51c0-0.26,0.06-0.61,0.19-1.03 c0.12-0.42,0.28-0.87,0.46-1.34c0.18-0.47,0.38-0.94,0.58-1.41c0.21-0.47,0.4-0.89,0.57-1.27l0.51-1.13 c0.08-0.21,0.04-0.43-0.09-0.65c-0.14-0.22-0.32-0.41-0.54-0.57c-0.22-0.16-0.45-0.28-0.7-0.36c-0.25-0.08-0.44-0.09-0.59-0.01 h-0.13c-0.13,0.48-0.28,0.97-0.45,1.48c-0.18,0.51-0.36,1.03-0.55,1.56c-0.11,0.29-0.22,0.59-0.33,0.89c0,0.01-0.01,0.01-0.01,0.01 c-0.06,0.1-0.13,0.2-0.19,0.29c-0.06,0.1-0.13,0.19-0.19,0.29h0.02c-0.21,0.36-0.45,0.74-0.71,1.13c-0.26,0.39-0.53,0.76-0.81,1.1 c-0.28,0.35-0.58,0.65-0.9,0.92c-0.31,0.27-0.64,0.47-0.98,0.59h-0.15c-0.06-0.06-0.09-0.23-0.09-0.51c0-0.26,0.06-0.6,0.18-1.02 c0.12-0.42,0.27-0.87,0.46-1.35c0.19-0.48,0.4-0.98,0.63-1.5c0.23-0.52,0.46-1.01,0.69-1.48c0.23-0.47,0.44-0.9,0.63-1.28 c0.19-0.38,0.35-0.68,0.46-0.9l0.11-0.23c0.2-0.39,0.41-0.8,0.63-1.24c0.22-0.44,0.43-0.86,0.62-1.25c0.2-0.4,0.37-0.75,0.51-1.06 c0.14-0.31,0.24-0.53,0.29-0.67c0.08-0.21,0.04-0.43-0.11-0.64c-0.15-0.21-0.35-0.4-0.59-0.55c-0.24-0.15-0.49-0.26-0.75-0.32 c-0.27-0.06-0.47-0.06-0.62,0.02c-0.18,0.65-0.45,1.41-0.81,2.28c-0.37,0.87-0.75,1.73-1.17,2.58l-0.74,1.45 c-0.54,1.06-1.04,2.12-1.51,3.19c-0.08,0.18-0.14,0.35-0.21,0.53c-0.02,0.04-0.04,0.07-0.07,0.11c-0.23,0.37-0.47,0.75-0.73,1.15 c-0.26,0.4-0.53,0.78-0.82,1.14c-0.29,0.36-0.59,0.68-0.9,0.95c-0.31,0.28-0.64,0.47-0.98,0.58h-0.17 c-0.04-0.04-0.06-0.19-0.06-0.45c0-0.18,0.03-0.38,0.08-0.61c0.06-0.23,0.13-0.48,0.21-0.73c0.08-0.25,0.17-0.5,0.27-0.75 s0.2-0.49,0.3-0.72c0.04-0.1,0.08-0.2,0.12-0.29c0.04-0.1,0.08-0.18,0.1-0.25c0.06-0.21,0.03-0.43-0.11-0.65 c-0.14-0.22-0.32-0.41-0.54-0.58c-0.22-0.16-0.45-0.29-0.7-0.37c-0.25-0.08-0.44-0.08-0.59-0.01h-0.13 c-0.03,0.29-0.09,0.61-0.19,0.96c-0.1,0.35-0.22,0.71-0.36,1.07c-0.16,0.26-0.37,0.57-0.63,0.91c-0.26,0.34-0.53,0.67-0.8,0.98 c-0.28,0.31-0.55,0.59-0.81,0.82c-0.26,0.23-0.48,0.37-0.66,0.41c-0.23,0.05-0.41,0.05-0.55,0.01c-0.14-0.04-0.25-0.12-0.34-0.24 c-0.09-0.11-0.15-0.25-0.18-0.41c-0.03-0.16-0.05-0.32-0.05-0.5c0-0.2,0.02-0.4,0.06-0.6c0.04-0.2,0.08-0.38,0.11-0.53 c0.09-0.31,0.21-0.66,0.36-1.03c0.15-0.37,0.33-0.74,0.54-1.11c0.21-0.37,0.44-0.73,0.69-1.07c0.25-0.34,0.52-0.64,0.81-0.91 c0.29-0.26,0.59-0.47,0.9-0.63c0.31-0.16,0.63-0.23,0.95-0.22c0.19,0.01,0.34,0.07,0.46,0.17c0.12,0.1,0.21,0.22,0.27,0.37 c0.06,0.14,0.11,0.3,0.13,0.47c0.02,0.17,0.04,0.32,0.06,0.46c0,0.05,0.01,0.1,0.02,0.14c0.01,0.04,0.02,0.09,0.02,0.14 c0,0.1,0.05,0.18,0.15,0.23c0.1,0.05,0.21,0.07,0.34,0.07c0.13-0.01,0.24-0.04,0.35-0.09c0.11-0.05,0.16-0.12,0.16-0.21 c0.01-0.26,0-0.53-0.03-0.79c-0.03-0.26-0.1-0.51-0.2-0.74c-0.1-0.23-0.24-0.44-0.42-0.61c-0.18-0.17-0.41-0.3-0.69-0.38 c-0.3-0.08-0.62-0.11-0.96-0.11c-0.54,0-1.07,0.1-1.57,0.31c-0.51,0.21-1,0.48-1.46,0.83c-0.46,0.35-0.9,0.74-1.29,1.19 c-0.4,0.44-0.74,0.91-1.04,1.39c-0.3,0.48-0.54,0.95-0.74,1.43c-0.19,0.48-0.32,0.92-0.37,1.32c-0.01,0.08-0.02,0.16-0.03,0.26 c-0.01,0.1-0.01,0.2-0.01,0.3c0,0.25,0.04,0.51,0.11,0.78c0.08,0.27,0.2,0.52,0.38,0.75c0.18,0.23,0.42,0.44,0.73,0.61 c0.31,0.18,0.69,0.28,1.14,0.32c0.28,0,0.55-0.05,0.83-0.16c0.28-0.11,0.55-0.25,0.82-0.43c0.27-0.17,0.53-0.38,0.79-0.6 c0.26-0.23,0.51-0.46,0.74-0.72v0.26c0,0.45,0.14,0.84,0.42,1.17c0.28,0.33,0.72,0.52,1.34,0.57c0.26,0.01,0.51-0.01,0.73-0.07 c0.22-0.06,0.42-0.13,0.59-0.22c0.18-0.09,0.33-0.18,0.47-0.28c0.14-0.1,0.25-0.19,0.34-0.26c0.58-0.5,1.08-1.05,1.53-1.65 c0,0,0,0.01,0,0.01c-0.02,0.11-0.04,0.24-0.06,0.38c-0.01,0.14-0.02,0.26-0.02,0.36c0,0.48,0.12,0.88,0.35,1.21 c0.23,0.33,0.6,0.5,1.11,0.53c0.25,0,0.49-0.03,0.71-0.09c0.22-0.06,0.43-0.13,0.61-0.21c0.18-0.08,0.34-0.17,0.48-0.27 c0.14-0.1,0.25-0.19,0.34-0.26c0.29-0.24,0.57-0.51,0.83-0.8c0.26-0.29,0.5-0.59,0.73-0.89c0,0.02-0.01,0.04-0.01,0.05 c-0.05,0.24-0.08,0.49-0.08,0.75c0,0.48,0.12,0.88,0.37,1.2c0.25,0.32,0.61,0.49,1.1,0.52c0.25,0,0.49-0.03,0.72-0.09 c0.23-0.06,0.43-0.13,0.61-0.21c0.18-0.08,0.34-0.17,0.48-0.27c0.14-0.1,0.25-0.19,0.34-0.26c0.26-0.21,0.52-0.45,0.75-0.72 c0.24-0.26,0.47-0.54,0.7-0.83c-0.04,0.21-0.06,0.43-0.06,0.64c0,0.48,0.12,0.88,0.37,1.21c0.24,0.33,0.62,0.5,1.12,0.53 c0.25,0,0.49-0.03,0.72-0.09c0.23-0.06,0.43-0.13,0.61-0.21c0.18-0.08,0.34-0.17,0.48-0.27c0.14-0.1,0.25-0.19,0.34-0.26 c0.56-0.49,1.04-1.03,1.48-1.63c0.05,0.75,0.32,1.35,0.82,1.79c0.52,0.45,1.24,0.68,2.17,0.68c0.15,0,0.36-0.01,0.62-0.02 c0.26-0.01,0.56-0.06,0.88-0.14c0.32-0.08,0.66-0.2,1.01-0.37c0.35-0.16,0.7-0.4,1.06-0.7c0.63-0.59,1.16-1.19,1.6-1.8 c0.44-0.61,0.81-1.16,1.11-1.65l0.36-0.58C150.49,128.81,150.5,128.7,150.46,128.62z M143.94,129.12c0.24-0.53,0.54-1.04,0.89-1.53 c0.35-0.49,0.74-0.92,1.19-1.29c0.45-0.37,0.91-0.61,1.41-0.71c0.15-0.03,0.26,0.01,0.33,0.11c0.07,0.1,0.1,0.25,0.1,0.43 c0,0.23-0.05,0.45-0.15,0.68c-0.48,0.91-1.08,1.67-1.82,2.29c-0.74,0.62-1.55,1.09-2.46,1.41 C143.52,130.12,143.69,129.65,143.94,129.12z"></path> </g> <g> <path class="st1" d="M201.48,74.15h-7.27c-1.83,0-3.31,0.55-4.34,1.55v-1.55h-16.53h-1.24h-17.87v24.66l-4.07-24.66h-9.61l-5.95,36 h9.99l0.53-4.56h0.48l0.53,4.56h9.99l-0.27-1.63c1.09,1.09,2.73,1.63,4.94,1.63h6.02c4.4,0,6.54-2.13,6.54-6.5V83.55h2.68v26.59 h9.93V83.55h2.32v20.45c0,3.84,2.31,6.14,6.18,6.14h6.79c3.87,0,6.18-2.29,6.18-6.14V79.92C207.41,76.36,205.14,74.15,201.48,74.15 z"></path> <path class="st1" d="M123.58,74.15h-5.73c-3.89,0-6.31,2.35-6.31,6.13v10.87c0,1.53,0.35,3.24,1.61,4.36h-1.45l-3.53-21.36h-9.61 l-4.98,30.18L90.4,91.98l4.5-17.83h-9.95l-0.59,3.14l-0.56-3.14h-8.5h-1.51H60.36h-1.42H42.59v9.41h3.92v26.59h9.93V83.55h2.5 v26.59h14.67h1.44h8.67l0.62-3.11l0.63,3.11h7.65h2.46h7.53l0.53-4.56h0.48l0.52,4.56h9.99l-0.3-1.82 c1.24,1.13,2.87,1.82,4.68,1.82h4.53c4.7,0,6.88-2.17,6.88-6.84V92.74c0-1.72-0.5-3.07-1.44-3.96h1.44v-8.31 C129.9,76.99,127.06,74.15,123.58,74.15z M75.05,104.54v-3.8h-6.14v-5.19h4.85v-9h-4.85v-3h6.38v-3.42l2.99,11.84L75.05,104.54z"></path> </g> <path class="st0" d="M58.38,76.12v5.45h-3.92v26.59h-5.98V81.58h-3.92v-5.45H58.38z"></path> <path class="st0" d="M60.92,76.12h12.4v5.45h-6.38v6.95h4.85v5.05h-4.85v9.14h6.14v5.45H60.92V76.12z"></path> <path class="st0" d="M88.36,91.98l4.16,16.19h-5.94l-2.26-11.22l-2.22,11.22h-5.94l4.16-16.19l-4-15.86h5.82l2.18,12.14l2.26-12.14 h5.78L88.36,91.98z"></path> <path class="st0" d="M101.37,103.62l-0.53,4.55h-5.9l5.29-32.05h6.26l5.29,32.05h-5.9l-0.52-4.55H101.37z M102.01,98.97h2.71 l-1.33-10.38L102.01,98.97z"></path> <path class="st0" d="M143.35,103.62l-0.53,4.55h-5.9l5.29-32.05h6.26l5.29,32.05h-5.9l-0.53-4.55H143.35z M144,98.97h2.71 l-1.33-10.38L144,98.97z"></path> <path class="st0" d="M160.77,108.17c-3.35,0-4.57-1.29-4.57-4.52V76.12h5.98v26.27c0,0.44,0.08,0.65,0.57,0.65h2.06 c0.48,0,0.57-0.2,0.57-0.65V76.12h5.98v27.52c0,3.23-1.21,4.52-4.57,4.52H160.77z"></path> <path class="st0" d="M187.89,76.12v5.45h-3.92v26.59h-5.98V81.58h-3.92v-5.45H187.89z"></path> <path class="st0" d="M205.44,104.01c0,2.22-0.93,4.16-4.2,4.16h-6.79c-3.27,0-4.2-1.94-4.2-4.16V79.92c0-2.3,1.21-3.8,3.96-3.8h7.27 c2.75,0,3.96,1.5,3.96,3.8V104.01z M196.67,81.26c-0.4,0-0.53,0.2-0.53,0.57v20.61c0,0.44,0.08,0.61,0.57,0.61h2.22 c0.49,0,0.57-0.16,0.57-0.61V81.82c0-0.36-0.12-0.57-0.53-0.57H196.67z"></path> <path class="st0" d="M127.93,86.81v-6.33c0-2.4-1.95-4.35-4.35-4.35h-1.62h-4.11c-3.01,0-4.33,1.64-4.33,4.16v10.87 c0,3.18,1.68,3.62,3.58,3.62h3.58c0.51,0,0.93,0.42,0.93,0.93v5.83c0,0.49-0.18,0.66-0.75,0.66h-1.37v-4.71h-5.97v5.71 c0,2.75,2.23,4.98,4.98,4.98h0.99h3.54c3.67,0,4.91-1.33,4.91-4.86V92.74c0-2.39-1.15-3.27-3.18-3.27h-4.02 c-0.54,0-0.97-0.44-0.97-0.97v-5.7c0-0.49,0.27-0.71,0.8-0.71h1.41v4.71H127.93z"></path> <g> </g> <g> </g> <g> </g> <g> </g> <g> </g> <g> </g> <g> </g> <g> </g> <g> </g> <g> </g> <g> </g> <g> </g> <g> </g> <g> </g> <g> </g> </svg> 